# xmcd
#
# Track frame offsets:
#	150
#	31054
#	71054
#	105874
#	128334
#	145535
#	169556
#	231383
#	240532
#	264001
#	303888
#	325021
#
# Disc length: 4676 seconds
#
# Revision: 1
# Processed by: cddbd v1.5.2PL0 Copyright (c) Steve Scherf et al.
# Submitted via: audiograbber 1.83.01
#
DISCID=8512420c
DTITLE=Grateful Dead - 70-12-28 Legion Stadium, El-Monte CA
DYEAR=1900
DGENRE=
TTITLE0=Cold Rain and Snow
TTITLE1=Truckin'
TTITLE2=It Hurts Me Too
TTITLE3=Me and My Uncle
TTITLE4=BIODTL
TTITLE5=China Cat Sunflower
TTITLE6=I Know You Rider
TTITLE7=Cryptical Envelopment
TTITLE8=Drums
TTITLE9=The Other One
TTITLE10=Cryptical Envelopment
TTITLE11=Sugar Magnolia
EXTD=
EXTT0=
EXTT1=
EXTT2=
EXTT3=
EXTT4=
EXTT5=
EXTT6=
EXTT7=
EXTT8=
EXTT9=
EXTT10=
EXTT11=
PLAYORDER=
